<svg width="280" height="156" viewBox="0 0 280 156" fill="none" xmlns="http://www.w3.org/2000/svg">
    <g clip-path="url(#clip0_2460_36272)">
        <path fill-rule="evenodd" clip-rule="evenodd"
            d="M1.56243 65.8322L34.9914 110.326C35.5134 111.022 36.1903 111.587 36.9685 111.976C37.7467 112.365 38.6048 112.568 39.4749 112.568C40.3449 112.568 41.203 112.365 41.9812 111.976C42.7594 111.587 43.4363 111.022 43.9583 110.326L73.3362 71.2228C75.9814 67.6995 73.7221 62.6485 69.3331 62.2705L6.52626 56.8816C1.69534 56.4668 -1.34861 61.9598 1.56243 65.8322Z"
            fill="#005FFF" />
        <path fill-rule="evenodd" clip-rule="evenodd"
            d="M1.56243 65.8322L34.9914 110.326C35.5134 111.022 36.1903 111.587 36.9685 111.976C37.7467 112.365 38.6048 112.568 39.4749 112.568C40.3449 112.568 41.203 112.365 41.9812 111.976C42.7594 111.587 43.4363 111.022 43.9583 110.326L73.3362 71.2228C75.9814 67.6995 73.7221 62.6485 69.3331 62.2705L6.52626 56.8816C1.69534 56.4668 -1.34861 61.9598 1.56243 65.8322Z"
            fill="url(#paint0_linear_2460_36272)" />
        <path fill-rule="evenodd" clip-rule="evenodd"
            d="M210.836 65.6628L150.05 146.569C147.275 150.264 149.91 155.538 154.533 155.538H207.561C208.68 155.538 209.783 155.277 210.784 154.777C211.784 154.276 212.654 153.55 213.326 152.655L278.425 66.0152C281.359 62.1124 278.246 56.5857 273.388 57.0709L215.888 62.8202C214.895 62.9184 213.933 63.2217 213.063 63.711C212.194 64.2004 211.435 64.865 210.836 65.6628Z"
            fill="#005FFF" />
        <path fill-rule="evenodd" clip-rule="evenodd"
            d="M210.836 65.6628L150.05 146.569C147.275 150.264 149.91 155.538 154.533 155.538H207.561C208.68 155.538 209.783 155.277 210.784 154.777C211.784 154.276 212.654 153.55 213.326 152.655L278.425 66.0152C281.359 62.1124 278.246 56.5857 273.388 57.0709L215.888 62.8202C214.895 62.9184 213.933 63.2217 213.063 63.711C212.194 64.2004 211.435 64.865 210.836 65.6628Z"
            fill="url(#paint1_linear_2460_36272)" />
        <path fill-rule="evenodd" clip-rule="evenodd"
            d="M194.067 66.3318L128.959 152.997C128.284 153.898 127.407 154.627 126.399 155.128C125.391 155.629 124.28 155.886 123.154 155.88L72.5248 155.56C71.4163 155.553 70.3243 155.291 69.3337 154.793C68.343 154.296 67.4805 153.577 66.8132 152.691L50.8313 131.507C49.8891 130.259 49.3787 128.738 49.377 127.173C49.3752 125.609 49.8823 124.087 50.8217 122.837L140.872 2.97905C141.541 2.08874 142.407 1.36559 143.402 0.866336C144.398 0.367084 145.495 0.105327 146.608 0.101603C147.722 0.0978788 148.821 0.352288 149.82 0.84487C150.818 1.33745 151.689 2.0548 152.364 2.94062L194.035 57.6294C194.988 58.8782 195.506 60.4042 195.512 61.9752C195.518 63.5462 195.01 65.076 194.067 66.3318Z"
            fill="#005FFF" />
        <path fill-rule="evenodd" clip-rule="evenodd"
            d="M194.067 66.3318L128.959 152.997C128.284 153.898 127.407 154.627 126.399 155.128C125.391 155.629 124.28 155.886 123.154 155.88L72.5248 155.56C71.4163 155.553 70.3243 155.291 69.3337 154.793C68.343 154.296 67.4805 153.577 66.8132 152.691L50.8313 131.507C49.8891 130.259 49.3787 128.738 49.377 127.173C49.3752 125.609 49.8823 124.087 50.8217 122.837L140.872 2.97905C141.541 2.08874 142.407 1.36559 143.402 0.866336C144.398 0.367084 145.495 0.105327 146.608 0.101603C147.722 0.0978788 148.821 0.352288 149.82 0.84487C150.818 1.33745 151.689 2.0548 152.364 2.94062L194.035 57.6294C194.988 58.8782 195.506 60.4042 195.512 61.9752C195.518 63.5462 195.01 65.076 194.067 66.3318Z"
            fill="url(#paint2_linear_2460_36272)" />
    </g>
    <defs>
        <linearGradient id="paint0_linear_2460_36272" x1="-283.314" y1="-205.167" x2="-362.205"
            y2="-47.2387" gradientUnits="userSpaceOnUse">
            <stop offset="0.177786" stop-color="#B38AF8" />
            <stop offset="0.563822" stop-color="#005FFF" />
            <stop offset="1" stop-color="#00ECBB" />
        </linearGradient>
        <linearGradient id="paint1_linear_2460_36272" x1="-351.736" y1="-406.239" x2="-502.641"
            y2="-105.523" gradientUnits="userSpaceOnUse">
            <stop offset="0.177786" stop-color="#B38AF8" />
            <stop offset="0.563822" stop-color="#005FFF" />
            <stop offset="1" stop-color="#00ECBB" />
        </linearGradient>
        <linearGradient id="paint2_linear_2460_36272" x1="-510.624" y1="-732.605" x2="-788.547"
            y2="-355.078" gradientUnits="userSpaceOnUse">
            <stop offset="0.177786" stop-color="#B38AF8" />
            <stop offset="0.563822" stop-color="#005FFF" />
            <stop offset="1" stop-color="#00ECBB" />
        </linearGradient>
        <clipPath id="clip0_2460_36272">
            <rect width="279.14" height="155.766" fill="white"
                transform="translate(0.425781 0.109375)" />
        </clipPath>
    </defs>
</svg>
